<svg width="52" height="50" viewBox="0 0 52 50" fill="none" xmlns="http://www.w3.org/2000/svg">
<g clip-path="url(#clip0_17_172)">
<path d="M26.0829 25C30.2947 18.8333 26.0829 10.4167 23.9769 8.33334C23.9769 14.6625 20.2431 18.2104 17.6591 20.8333C15.0772 23.4583 13.4473 27.5833 13.4473 31.25C13.4473 34.5652 14.7785 37.7446 17.1481 40.0888C19.5178 42.433 22.7317 43.75 26.0829 43.75C29.434 43.75 32.6479 42.433 35.0176 40.0888C37.3872 37.7446 38.7185 34.5652 38.7185 31.25C38.7185 28.0583 36.4946 23.0417 34.5066 20.8333C30.7454 27.0833 28.6289 27.0833 26.0829 25Z" stroke="white" stroke-width="2.5" stroke-linecap="round" stroke-linejoin="round"/>
</g>
<defs>
<clipPath id="clip0_17_172">
<rect width="50.5424" height="50" fill="white" transform="translate(0.811646)"/>
</clipPath>
</defs>
</svg>
