<svg xmlns="http://www.w3.org/2000/svg" xmlns:xlink="http://www.w3.org/1999/xlink" width="500" zoomAndPan="magnify" viewBox="0 0 375 374.999991" height="500" preserveAspectRatio="xMidYMid meet" version="1.0"><defs><clipPath id="99da94491a"><path d="M 88 4 L 315 4 L 315 271 L 88 271 Z M 88 4 " clip-rule="nonzero"/></clipPath><clipPath id="62bcdbc542"><path d="M -35.136719 157.476562 L 288.1875 -5.886719 L 405.550781 226.398438 L 82.230469 389.761719 Z M -35.136719 157.476562 " clip-rule="nonzero"/></clipPath><clipPath id="0945ac9495"><path d="M -35.136719 157.476562 L 288.1875 -5.886719 L 405.550781 226.398438 L 82.230469 389.761719 Z M -35.136719 157.476562 " clip-rule="nonzero"/></clipPath><clipPath id="495adc0c3a"><path d="M 12 97 L 262 97 L 262 347 L 12 347 Z M 12 97 " clip-rule="nonzero"/></clipPath><clipPath id="8e7121a874"><path d="M -35.136719 157.476562 L 288.1875 -5.886719 L 405.550781 226.398438 L 82.230469 389.761719 Z M -35.136719 157.476562 " clip-rule="nonzero"/></clipPath><clipPath id="2281fb1640"><path d="M -35.136719 157.476562 L 288.1875 -5.886719 L 405.550781 226.398438 L 82.230469 389.761719 Z M -35.136719 157.476562 " clip-rule="nonzero"/></clipPath></defs><g clip-path="url(#99da94491a)"><g clip-path="url(#62bcdbc542)"><g clip-path="url(#0945ac9495)"><path fill="#ff3131" d="M 185.050781 215.976562 C 184.179688 209.066406 181.847656 202.457031 178.167969 196.546875 L 176.085938 193.207031 L 200.128906 162.191406 L 257.035156 88.011719 L 279.878906 91.136719 L 314.652344 46.289062 L 281.957031 41.816406 L 266.902344 4.953125 L 230.621094 51.742188 L 239.53125 73.5625 L 228.082031 88.324219 L 182.414062 147.992188 L 161.25 175.285156 L 127.765625 218.460938 L 135.386719 173.84375 C 133.976562 173.898438 132.566406 174.011719 131.164062 174.191406 C 104.761719 177.53125 86.042969 201.671875 89.382812 228.078125 C 92.722656 254.484375 116.859375 273.203125 143.265625 269.863281 C 169.675781 266.523438 188.394531 242.382812 185.050781 215.976562 Z M 185.050781 215.976562 " fill-opacity="1" fill-rule="evenodd"/></g></g></g><g clip-path="url(#495adc0c3a)"><g clip-path="url(#8e7121a874)"><g clip-path="url(#2281fb1640)"><path fill="#000000" d="M 148.910156 314.484375 C 97.875 320.941406 51.210938 284.757812 44.753906 233.722656 C 38.300781 182.683594 74.484375 136.023438 125.519531 129.570312 C 137.851562 128.011719 150.308594 128.902344 162.246094 132.234375 L 182.671875 105.886719 C 163.269531 98.269531 142.351562 95.691406 121.566406 98.316406 C 53.277344 106.957031 4.867188 169.386719 13.507812 237.671875 C 22.144531 305.964844 84.574219 354.371094 152.863281 345.734375 C 221.152344 337.097656 269.5625 274.667969 260.921875 206.378906 C 258.597656 187.992188 252.257812 170.414062 242.308594 154.859375 L 221.351562 181.890625 C 225.617188 190.847656 228.429688 200.480469 229.675781 210.332031 C 236.128906 261.367188 199.945312 308.027344 148.910156 314.484375 Z M 148.910156 314.484375 " fill-opacity="1" fill-rule="evenodd"/></g></g></g></svg>